<?xml version="1.0" encoding="utf-8"?>
<!-- Generator: Adobe Illustrator 27.3.1, SVG Export Plug-In . SVG Version: 6.00 Build 0)  -->
<svg version="1.1" id="Layer_1" xmlns="http://www.w3.org/2000/svg" xmlns:xlink="http://www.w3.org/1999/xlink" x="0px" y="0px"
	 viewBox="0 0 1234.8 878.3" style="enable-background:new 0 0 1234.8 878.3;" xml:space="preserve">
<style type="text/css">
	.st0{opacity:0.37;}
	.st1{clip-path:url(#SVGID_00000070803361873705075960000015239070389378843550_);}
	.st2{fill:none;stroke:#B5ACAA;}
	.st3{fill:none;stroke:#B8AFAD;}
	.st4{fill:none;stroke:#BBB2B0;}
	.st5{fill:none;stroke:#BCB3B1;}
	.st6{fill:none;stroke:#BFB6B4;}
	.st7{fill:none;stroke:#C1B9B7;}
	.st8{fill:none;stroke:#C3BBB9;}
	.st9{fill:none;stroke:#C4BEBC;}
	.st10{fill:none;stroke:#C7C1BF;}
	.st11{fill:none;stroke:#CAC2C0;}
	.st12{fill:none;stroke:#CBC5C4;}
	.st13{fill:none;stroke:#CDC7C5;}
	.st14{fill:none;stroke:#CFCAC8;}
	.st15{fill:none;stroke:#D2CDCB;}
	.st16{fill:none;stroke:#D4CECD;}
	.st17{fill:none;stroke:#D7D1D0;}
	.st18{fill:none;stroke:#DAD5D4;}
	.st19{fill:none;stroke:#DBD6D5;}
	.st20{fill:none;stroke:#DED9D9;}
	.st21{fill:none;stroke:#E1DDDC;}
	.st22{fill:none;stroke:#E3DEDE;}
	.st23{fill:none;stroke:#E6E2E1;}
	.st24{fill:none;stroke:#E9E5E5;}
	.st25{fill:none;stroke:#EAE7E7;}
	.st26{fill:none;stroke:#EDEAEA;}
	.st27{fill:none;stroke:#EFEEEE;}
	.st28{fill:none;stroke:#F2EFEF;}
	.st29{fill:none;stroke:#F4F3F3;}
	.st30{fill:none;stroke:#F7F6F6;}
	.st31{fill:none;stroke:#F9F8F8;}
	.st32{fill:none;stroke:#FCFBFB;}
	.st33{fill:none;stroke:#FFFFFF;}
	.st34{fill:none;stroke:#D8D3D2;stroke-width:0.5;}
	.st35{fill:none;stroke:#DAD5D4;stroke-width:1.0323;}
	.st36{fill:none;stroke:#DBD6D5;stroke-width:1.0645;}
	.st37{fill:none;stroke:#DBD6D5;stroke-width:1.0968;}
	.st38{fill:none;stroke:#DDD8D7;stroke-width:1.129;}
	.st39{fill:none;stroke:#DED9D9;stroke-width:1.1613;}
	.st40{fill:none;stroke:#E0DBDB;stroke-width:1.1935;}
	.st41{fill:none;stroke:#E1DDDC;stroke-width:1.2258;}
	.st42{fill:none;stroke:#E3DEDE;stroke-width:1.2581;}
	.st43{fill:none;stroke:#E3DEDE;stroke-width:1.2903;}
	.st44{fill:none;stroke:#E4E0E0;stroke-width:1.3226;}
	.st45{fill:none;stroke:#E6E2E1;stroke-width:1.3548;}
	.st46{fill:none;stroke:#E7E3E3;stroke-width:1.3871;}
	.st47{fill:none;stroke:#E9E5E5;stroke-width:1.4194;}
	.st48{fill:none;stroke:#E9E5E5;stroke-width:1.4516;}
	.st49{fill:none;stroke:#EAE7E7;stroke-width:1.4839;}
	.st50{fill:none;stroke:#ECE9E8;stroke-width:1.5161;}
	.st51{fill:none;stroke:#EDEAEA;stroke-width:1.5484;}
	.st52{fill:none;stroke:#EFECEC;stroke-width:1.5806;}
	.st53{fill:none;stroke:#EFEEEE;stroke-width:1.6129;}
	.st54{fill:none;stroke:#EFEEEE;stroke-width:1.6452;}
	.st55{fill:none;stroke:#F2EFEF;stroke-width:1.6774;}
	.st56{fill:none;stroke:#F4F1F1;stroke-width:1.7097;}
	.st57{fill:none;stroke:#F4F3F3;stroke-width:1.7419;}
	.st58{fill:none;stroke:#F6F5F5;stroke-width:1.7742;}
	.st59{fill:none;stroke:#F7F6F6;stroke-width:1.8065;}
	.st60{fill:none;stroke:#F7F6F6;stroke-width:1.8387;}
	.st61{fill:none;stroke:#F9F8F8;stroke-width:1.871;}
	.st62{fill:none;stroke:#FAFAFA;stroke-width:1.9032;}
	.st63{fill:none;stroke:#FCFBFB;stroke-width:1.9355;}
	.st64{fill:none;stroke:#FFFFFF;stroke-width:1.9677;}
	.st65{fill:none;stroke:#FFFFFF;stroke-width:2;}
</style>
<g class="st0">
	<defs>
		<rect id="SVGID_1_" class="st0" width="1234.8" height="878.3"/>
	</defs>
	<clipPath id="SVGID_00000021823151455997294070000011990099497997363131_">
		<use xlink:href="#SVGID_1_"  style="overflow:visible;"/>
	</clipPath>
	<g style="clip-path:url(#SVGID_00000021823151455997294070000011990099497997363131_);">
		<path class="st2" d="M337.5-8.2C235.2,153.4,37.8,305.8,215.8,496S-71,460.6,136.1,721c297.6,374.3,966.3,250,1104.3-26.1"/>
		<path class="st3" d="M326.4-9C225,149.8,29,307.3,209.8,497.9c10.8,11.4,19.3,21.4,25.9,30c105,137-286.9-40.9-100.9,196.5
			c142,182.1,394.4,245.4,616,222.8C972,924.3,1178.4,829.7,1245,696.4"/>
		<path class="st4" d="M315.3-9.8c-100.5,156-295,318.7-111.5,509.6c10.8,11.3,19.4,21.3,26.3,29.9
			c111.5,139.6-273.5-32.4-96.6,198.1c135.3,176.4,397.4,241,618.5,214.8c221.3-26.7,433.1-116,497.5-244.9"/>
		<path class="st5" d="M304.2-10.6C204.5,142.7,11.9,310,197.8,501.8c10.9,11.2,19.6,21.2,26.7,29.8
			c118.1,142.1-260.3-23.7-92.2,199.8c128.5,170.8,400.4,236.5,621,206.9c221.4-30.6,438.6-114.5,500.8-238.9"/>
		<path class="st6" d="M293.1-11.3C194.3,139.1,3.3,311.4,191.8,503.7c10.9,11.1,19.7,21.1,27.1,29.6
			c124.7,144.6-247.2-15-87.9,201.4C252.6,900,534.4,967.3,754.5,933.6c221.6-33.9,444.2-113,504.1-233"/>
		<path class="st7" d="M282-12.1c-97.9,147.7-287.4,325-96.2,517.8c11,11,19.8,21,27.4,29.5c131.4,147-234-6.3-83.6,203
			c114.7,159.7,406.5,228.2,626.1,191c221.7-37.6,449.7-111.5,507.5-227"/>
		<path class="st8" d="M271-12.9c-97.1,144.9-285,327.3-91.1,520.5c11,10.9,20,20.9,27.8,29.3c138.1,149.4-220.9,2.4-79.3,204.7
			c107.9,154.1,409.5,223.8,628.6,183c221.9-41.3,455.2-110,510.8-221"/>
		<path class="st9" d="M259.9-13.7c-96.2,142.1-282.7,329.5-86,523.2c11,10.9,20.1,20.7,28.2,29.2C347,690.5-5.6,549.8,127.1,745
			c101,148.6,412.5,219.4,631.2,175.1c222-45,460.8-108.4,514.1-215.1"/>
		<path class="st10" d="M248.8-14.5c-95.3,139.3-280.3,331.8-80.9,526c11.1,10.8,20.3,20.6,28.6,29.1
			C348.2,694.7,2,560.4,125.8,748.4c94.2,143,415.5,215,633.7,167.1c222.1-48.8,466.3-106.9,517.4-209.1"/>
		<path class="st11" d="M237.7-15.3c-94.5,136.6-277.9,334.1-75.8,528.7c11.1,10.7,20.4,20.5,29,28.9
			c158.6,156.5-181.3,28.6-66.3,209.5C211.8,889.3,543,962.5,760.7,911c222.3-52.5,471.8-105.4,520.7-203.2"/>
		<path class="st12" d="M226.6-16.1C133,117.7-48.9,320.3,155.9,515.3c11.1,10.6,20.6,20.4,29.3,28.8
			c165.5,158.8-168.1,37.3-62,211.2c80.5,132,421.5,206.2,638.7,151.2c222.4-56.3,477.4-103.9,524-197.2"/>
		<path class="st13" d="M215.5-16.9c-92.7,131-273.2,338.7-65.6,534.2c11.1,10.5,20.7,20.2,29.7,28.6
			C352.1,707,24.8,592,121.9,758.7C195.6,885.2,546.5,960.5,763.2,902c222.6-60.1,482.9-102.4,527.3-191.2"/>
		<path class="st14" d="M204.5-17.7c-91.9,128.2-270.9,341-60.5,536.9c11.2,10.4,20.9,20.1,30.1,28.5
			C353.5,711,32.4,602.6,120.6,762.1c66.9,120.9,427.6,197.3,643.8,135.3c222.7-63.9,488.4-100.9,530.6-185.3"/>
		<path class="st15" d="M193.4-18.5c-91,125.4-268.6,343.3-55.4,539.6c11.2,10.3,21.1,20,30.5,28.3C354.9,715,40,613.2,119.3,765.6
			C179.4,881,549.9,958.4,765.7,892.9c222.8-67.7,494-99.4,534-179.3"/>
		<path class="st16" d="M182.3-19.3C92.1,103.4-84,326.4,132,523.1c11.2,10.2,21.2,19.9,30.9,28.2C356.3,718.9,47.7,623.8,118.1,769
			c53.3,110,433.6,188.4,648.9,119.4c223-71.5,499.5-97.8,537.3-173.4"/>
		<path class="st17" d="M171.2-20.1C81.9,99.8-92.8,327.9,126,525c11.3,10.1,21.4,19.7,31.2,28.1c200.6,169.7-101.8,81.4-40.4,219.3
			C163.3,877,553.3,956.4,768.2,883.9c223.1-75.3,505-96.3,540.6-167.4"/>
		<path class="st18" d="M160.1-20.8C71.7,96.3-101.6,329.5,120,527c11.3,10.1,21.5,19.6,31.6,27.9c207.7,171.8-88.5,90.3-36.1,221
			c39.8,99.2,439.6,179.5,653.9,103.5c223.2-79.1,510.6-94.8,543.9-161.5"/>
		<path class="st19" d="M149-21.6C61.5,92.7-110.4,331.1,114,528.9c11.3,10,21.7,19.5,32,27.8c214.8,173.8-75.2,99.3-31.8,222.6
			c33.1,93.9,442.6,175,656.5,95.5c223.4-83,516.1-93.3,547.2-155.5"/>
		<path class="st20" d="M138-22.4C51.3,89.1-119.2,332.7,108,530.8c11.3,9.9,21.9,19.3,32.4,27.6c222,175.9-61.9,108.3-27.5,224.2
			c26.3,88.6,445.6,170.5,659,87.6c223.5-86.8,521.6-91.8,550.5-149.5"/>
		<path class="st21" d="M126.9-23.2C41.1,85.6-128.1,334.3,102,532.8c11.4,9.8,22,19.2,32.8,27.5c229.1,177.8-48.6,117.5-23.2,225.9
			c19.6,83.5,448.6,166,661.5,79.6c223.6-90.7,527.2-90.3,553.8-143.6"/>
		<path class="st22" d="M115.8-24C30.8,82-136.9,335.9,96,534.7c11.4,9.7,22.2,19,33.1,27.4c236.3,179.8-35.4,126.7-18.9,227.5
			c12.9,78.4,451.5,161.5,664,71.7c223.7-94.5,532.7-88.8,557.1-137.6"/>
		<path class="st23" d="M104.7-24.8C20.6,78.4-145.8,337.5,90,536.7c11.4,9.6,22.4,18.9,33.5,27.2C367,745.6,101.3,700,109,793
			c6.1,73.4,454.5,157,666.6,63.7c223.8-98.4,538.2-87.2,560.5-131.7"/>
		<path class="st24" d="M93.6-25.6C10.4,74.8-154.6,339.2,84.1,538.6c11.4,9.5,22.5,18.8,33.9,27.1
			c250.7,183.6-9.2,145.7-10.2,230.7c-0.8,68.6,457.5,152.4,669.1,55.8c223.9-102.3,543.8-85.7,563.8-125.7"/>
		<path class="st25" d="M82.5-26.4C0.2,71.3-163.5,340.8,78.1,540.5c11.4,9.5,22.7,18.6,34.3,26.9c257.9,185.5,3.6,155.4-5.9,232.4
			c-7.9,63.8,460.5,147.9,671.6,47.8c224-106.1,549.3-84.2,567.1-119.8"/>
		<path class="st26" d="M71.4-27.2C-10,67.7-172.4,342.5,72.1,542.5c11.5,9.4,22.9,18.5,34.7,26.8c265.1,187.3,16,165.1-1.6,234
			C90,862.5,568.6,946.6,779.3,843.2c224.1-110,554.8-82.7,570.4-113.8"/>
		<path class="st27" d="M60.4-28c-80.6,92.1-241.7,372.2,5.7,572.4c11.5,9.3,23,18.3,35,26.7c272.4,189.1,28.1,174.8,2.7,235.6
			c-22.8,54.5,466.4,138.8,676.7,31.9c224.2-113.9,560.4-81.2,573.7-107.8"/>
		<path class="st28" d="M49.3-28.8c-79.8,89.3-239.5,374.7,10.8,575.1c11.5,9.2,23.2,18.2,35.4,26.5c279.6,190.9,39.9,184.3,7,237.3
			c-30.7,49.6,469.3,134.3,679.2,24c224.2-117.8,565.9-79.7,577-101.9"/>
		<path class="st29" d="M38.2-29.6C-40.7,57-199.1,347.6,54.1,548.3c11.5,9.1,23.4,18,35.8,26.4c286.9,192.6,51.4,193.4,11.4,238.9
			c-38.9,44.3,472.1,129.3,681.8,16c224.1-122.2,571.4-78.1,580.3-95.9"/>
		<path class="st30" d="M27.1-30.3c-78,83.8-235.2,379.7,21,580.6c11.6,9.1,23.5,17.9,36.2,26.2c294.1,194.4,62.9,202,15.7,240.5
			c-47.1,38.5,475.1,124.9,684.3,8.1c224.2-126,577-76.6,583.6-90"/>
		<path class="st31" d="M16-31.1c-77.2,81-233.3,382.6,26.1,583.3c11.6,9,23.7,17.7,36.6,26.1c301.4,196.1,74.7,210.2,20,242.2
			c-55.2,32.3,478.1,120.4,686.8,0.1c224.3-129.8,582.5-75.1,587-84"/>
		<path class="st32" d="M4.9-31.9c-76.3,78.2-231,385,31.2,586c11.6,8.9,23.9,17.6,36.9,26c309,197.3,86.8,218.1,24.3,243.8
			c-63,25.9,481,115.9,689.3-7.8c224.4-133.6,588.1-73.6,590.3-78"/>
		<path class="st33" d="M-6.1-32.7C-84.9,46-248.5,382.5,67.5,581.9s99.2,226,28.6,245.4c-70.6,19.4,484,111.5,691.9-15.8
			c224.5-137.5,593.6-72.1,593.6-72.1"/>
	</g>
	<g style="clip-path:url(#SVGID_00000021823151455997294070000011990099497997363131_);">
		<path class="st34" d="M-69.4-10.6c174.9,33.7,503.1,41.4,332.8,355.8s21.5,659.5,279.2,441.7c250.2-211.5,498.5,124.2,789.9,199.4
			"/>
		<path class="st35" d="M-70.6-2.4c173.5,31.9,498.5,38,329,350.3c-169.6,312.3,10.2,655.6,269.3,445
			C779.5,588.5,1038.8,902,1331,982.1"/>
		<path class="st36" d="M-71.8,5.9c172.2,30.1,494,34.6,325.1,344.8c-168.9,310.2-1.1,651.6,259.4,448.3
			c253.5-197.4,523.8,93.9,816.7,178.9"/>
		<path class="st37" d="M-73,14.2C97.9,42.4,416.5,45.3,248.3,353.4c-168.2,308.1-12.4,647.7,249.5,451.5
			c255.1-190.4,536.5,78.7,830.1,168.7"/>
		<path class="st38" d="M-74.2,22.4C95.4,48.9,410.7,50.2,243.2,356.1C75.8,662,219.6,999.8,482.8,810.9
			c256.7-183.4,549.2,63.5,843.5,158.4"/>
		<path class="st39" d="M-75.3,30.7C92.8,55.3,405,55,238.2,358.8C71.4,662.6,203.3,998.6,467.9,816.9
			c258.3-176.4,561.8,48.3,857,148.2"/>
		<path class="st40" d="M-76.5,39C90.3,61.7,399.2,59.9,233.1,361.5C67.1,663.2,186.9,997.3,452.9,822.9
			c260-169.4,574.5,33.1,870.4,137.9"/>
		<path class="st41" d="M-77.7,47.2C87.8,68.1,393.5,64.7,228.1,364.3C62.7,663.8,170.6,996.1,438,828.9
			c261.6-162.3,587.2,17.9,883.8,127.7"/>
		<path class="st42" d="M-78.9,55.5C85.3,74.6,387.8,69.6,223.1,367C58.3,664.4,154.3,994.9,423,834.9
			c263.2-155.3,599.8,2.7,897.2,117.5"/>
		<path class="st43" d="M-80.1,63.7C82.7,81,382,74.4,218,369.7C54,665,137.6,993.1,408.1,840.8c264.5-148.9,612.5-12.5,910.6,107.2
			"/>
		<path class="st44" d="M-81.3,72C80.2,87.4,376.3,79.3,213,372.4C49.6,665.6,121.3,991.8,393.2,846.8
			c266.1-141.9,625.2-27.7,924,97"/>
		<path class="st45" d="M-82.5,80.3c160.2,13.6,453,3.9,290.4,294.9c-162.6,291-103,615.3,170.3,477.7
			C646,717.9,1016,810,1315.6,939.6"/>
		<path class="st46" d="M-83.7,88.5C75.2,100.3,364.8,89,202.9,377.9S88.6,989.2,363.3,858.8c269.4-127.9,650.5-58,950.8,76.5"/>
		<path class="st47" d="M-84.8,96.8c157.5,9.9,443.9-3,282.7,283.8C36.6,667.4,72.3,988,348.3,864.8
			c271-120.9,663.2-73.2,964.2,66.3"/>
		<path class="st48" d="M-86,105.1c156.2,8.1,439.4-6.4,278.8,278.3C32.2,668,56,986.7,333.4,870.8c272.7-113.9,675.8-88.4,977.6,56
			"/>
		<path class="st49" d="M-87.2,113.3c154.8,6.3,434.8-9.8,274.9,272.7C27.9,668.6,39.7,985.4,318.4,876.8
			c274.3-106.9,688.5-103.6,991,45.8"/>
		<path class="st50" d="M-88.4,121.6c153.5,4.5,430.3-13.2,271.1,267.2C23.5,669.2,23.4,984.2,303.5,882.8
			c276-99.9,701.2-118.8,1004.5,35.5"/>
		<path class="st51" d="M-89.6,129.8c152.1,2.6,425.7-16.6,267.2,261.6C19.2,669.7,7.1,983,288.6,888.7
			c277.6-92.9,713.8-134,1017.9,25.3"/>
		<path class="st52" d="M-90.8,138.1c150.8,0.8,421.2-20,263.4,256.1C14.8,670.3-9.2,981.7,273.6,894.7
			c279.2-85.9,726.5-149.2,1031.3,15"/>
		<path class="st53" d="M-92,146.4c149.5-1,416.6-23.5,259.5,250.6c-157.1,274-193.1,583.6,91.1,503.8
			c280.9-78.9,739.1-164.4,1044.7,4.8"/>
		<path class="st54" d="M-93.2,154.6c148.1-2.9,412.1-26.9,255.7,245C6.1,671.5-41.8,979.3,243.7,906.7
			c282.6-71.8,751.8-179.6,1058.1-5.4"/>
		<path class="st55" d="M-94.3,162.9c146.8-4.7,407.5-30.3,251.8,239.5s-215.6,575.7,71.3,510.3C513,847.9,993.3,717.9,1300.3,897"
			/>
		<path class="st56" d="M-95.5,171.2c145.5-6.5,402.9-33.7,247.9,233.9c-155,267.6-226.8,571.8,61.5,513.6
			C499.7,861,991,708.7,1298.8,892.7"/>
		<path class="st57" d="M-96.7,179.4c144.1-8.4,398.4-37.1,244.1,228.4C-7,673.3-90.7,975.7,198.9,924.7
			c287.5-50.6,789.8-225.1,1098.3-36.2"/>
		<path class="st58" d="M-97.9,187.7c142.8-10.2,393.8-40.5,240.2,222.8C-11.3,673.9-107,975.1,184,930.6
			c289.2-43,802.5-240.3,1111.7-46.4"/>
		<path class="st59" d="M-99.1,195.9c141.5-12,389.3-43.9,236.4,217.3C-15.7,674.5-123.3,973.8,169,936.6
			c290.9-36,815.1-255.5,1125.1-56.7"/>
		<path class="st60" d="M-100.3,204.2C39.8,190.4,284.5,156.9,132.2,416C-20,675.1-139.6,972.6,154.1,942.6
			c292.5-29,827.8-270.7,1138.5-66.9"/>
		<path class="st61" d="M-101.5,212.5c138.8-15.7,380.2-50.8,228.6,206.2c-151.6,257-283.1,552.7,12,529.9
			c294.1-21.9,840.5-285.9,1151.9-77.1"/>
		<path class="st62" d="M-102.7,220.7C34.8,203.2,273,166.6,122.1,421.4c-150.9,254.9-294.4,548.7,2.1,533.2
			c295.7-14.9,853.1-301.1,1165.4-87.4"/>
		<path class="st63" d="M-103.8,229c136.1-19.3,371.1-57.6,220.9,195.1c-150.2,252.7-305.7,544.8-7.8,536.4
			C406.6,952.7,975.1,644.3,1288,863"/>
		<path class="st64" d="M-105,237.3c134.8-21.2,366.5-61,217.1,189.6c-149.5,250.6-317,540.8-17.7,539.7
			c299-0.9,878.5-331.5,1192.2-107.9"/>
		<path class="st65" d="M-106.2,245.5c133.4-23,362-64.4,213.2,184.1s-328.2,536.8-27.6,543s891.1-346.6,1205.6-118.1"/>
	</g>
</g>
</svg>
