<?xml version="1.0" encoding="utf-8"?>
<!-- Generator: Adobe Illustrator 27.3.1, SVG Export Plug-In . SVG Version: 6.00 Build 0)  -->
<svg version="1.1" id="Layer_1" xmlns="http://www.w3.org/2000/svg" xmlns:xlink="http://www.w3.org/1999/xlink" x="0px" y="0px"
	 viewBox="0 0 35.4 34.5" style="enable-background:new 0 0 35.4 34.5;" xml:space="preserve">
<style type="text/css">
	.st0{fill:#009ADA;}
	.st1{fill:#FF9706;}
</style>
<path class="st0" d="M33.9,0h-9c-0.8,0-1.5,0.7-1.5,1.5c0,0.8,0.7,1.5,1.5,1.5h7.5v28.5h-7.5c-0.8,0-1.5,0.7-1.5,1.5
	c0,0.8,0.7,1.5,1.5,1.5h9c0.8,0,1.5-0.7,1.5-1.5V1.5C35.4,0.7,34.8,0,33.9,0z"/>
<path class="st1" d="M18,17.3c0-0.6-0.4-1.2-0.9-1.4l-6.5-6.5C10,8.8,9,8.8,8.4,9.4c-0.6,0.6-0.6,1.5,0,2.1l4.3,4.3H1.5
	c-0.8,0-1.5,0.7-1.5,1.5c0,0.8,0.7,1.5,1.5,1.5h11.2L8.4,23c-0.6,0.6-0.6,1.5,0,2.1c0.3,0.3,0.7,0.4,1.1,0.4s0.8-0.1,1.1-0.4
	l6.5-6.5C17.6,18.4,18,17.9,18,17.3z"/>
</svg>
