<?xml version="1.0" encoding="utf-8"?>
<!-- Generator: Adobe Illustrator 27.3.1, SVG Export Plug-In . SVG Version: 6.00 Build 0)  -->
<svg version="1.1" id="Layer_1" xmlns="http://www.w3.org/2000/svg" xmlns:xlink="http://www.w3.org/1999/xlink" x="0px" y="0px"
	 viewBox="0 0 390.8 217.8" style="enable-background:new 0 0 390.8 217.8;" xml:space="preserve">
<style type="text/css">
	.st0{fill:#FFFFFF;}
	.st1{fill:#083761;}
</style>
<g>
	<g>
		
			<image style="overflow:visible;opacity:0.32;" width="384" height="203" xlink:href="E340B3806E778E0A.png"  transform="matrix(1 0 0 1 6.7597 14.8206)">
		</image>
		<g>
			<path class="st0" d="M346.6,193.4H51.5c-10.9,0-19.8-8.9-19.8-19.8V59.2c0-10.9,8.9-19.8,19.8-19.8h295.2
				c10.9,0,19.8,8.9,19.8,19.8v114.4C366.4,184.5,357.5,193.4,346.6,193.4z"/>
		</g>
	</g>
	<circle class="st1" cx="40.4" cy="40.4" r="40.4"/>
	<g>
		<g>
			<path class="st0" d="M8.8,48.3c0,0,17.1-8.1,19.4-24.1c0,0,16.5,7.2,13,26.2c0,0,0-13.9-12-19.4C29.2,31.1,24.6,45.9,8.8,48.3z"
				/>
			<path class="st0" d="M12.9,51.3c0,0,11.8-2.3,17.5-16c0,0,7,3.9,8.2,13.6c0,0-3-5.5-7.6-8.3C31,40.6,24,51.7,12.9,51.3z"/>
		</g>
		<g>
			<path class="st0" d="M58.7,44.1c-3.5,0-6.3-2.8-6.3-6.3c0-3.5,2.8-6.3,6.3-6.3s6.3,2.8,6.3,6.3c0,1.6-0.6,3-1.6,4.2v0.8h0.8v0.8
				H65v0.8h0.7V45h0.8v0.8h0.8v0.8h0.7v0.5c2.4-2.4,3.9-5.7,3.9-9.4c0-7.3-5.9-13.3-13.3-13.3s-13.3,5.9-13.3,13.3S51.4,51,58.7,51
				c0.1,0,0.3,0,0.4,0v-6.9C59,44.1,58.8,44.1,58.7,44.1z"/>
		</g>
		<path class="st0" d="M66.7,46.4h-0.8v-0.8h-0.8v-0.8h-0.7v-0.8h-0.8v-0.8h-0.8v-0.8h-0.8v-0.8h-0.7V41h-0.8v-0.8h-0.9V51h0.8v-0.8
			h0.8v-0.8h0.8v-0.8h0.7v0.8h0.8V51h0.8v1.5h1.5v1.6h1.5v-1.6h-1.5V51h-0.8v-1.4h-0.8v-1.6h3.1v-0.7h-0.7V46.4z"/>
	</g>
</g>
</svg>
