<?xml version="1.0" encoding="utf-8"?>
<!-- Generator: Adobe Illustrator 27.3.1, SVG Export Plug-In . SVG Version: 6.00 Build 0)  -->
<svg version="1.1" id="Layer_1" xmlns="http://www.w3.org/2000/svg" xmlns:xlink="http://www.w3.org/1999/xlink" x="0px" y="0px"
	 viewBox="0 0 73.7 73.7" style="enable-background:new 0 0 73.7 73.7;" xml:space="preserve">
<style type="text/css">
	.st0{fill:#00C0F0;}
	.st1{fill:#FFFFFF;}
</style>
<g>
	<g>
		<g>
			
				<ellipse transform="matrix(0.2298 -0.9732 0.9732 0.2298 -7.4786 64.2289)" class="st0" cx="36.8" cy="36.8" rx="36.8" ry="36.8"/>
		</g>
	</g>
	<g>
		<g>
			<g>
				<path class="st1" d="M58.2,51.6H15.5c-0.4,0-0.7-0.3-0.7-0.7V22.8c0-0.4,0.3-0.7,0.7-0.7h42.7c0.4,0,0.7,0.3,0.7,0.7v28.1
					C58.9,51.3,58.6,51.6,58.2,51.6z M16.2,50.1h41.2V23.5H16.2V50.1z"/>
			</g>
		</g>
		<g>
			<g>
				<path class="st1" d="M36.8,43c-0.2,0-0.4-0.1-0.5-0.2L15,23.3c-0.2-0.2-0.3-0.5-0.2-0.8c0.1-0.3,0.4-0.5,0.7-0.5h42.7
					c0.3,0,0.6,0.2,0.7,0.5c0.1,0.3,0,0.6-0.2,0.8L37.3,42.8C37.2,42.9,37,43,36.8,43z M17.4,23.5l19.4,17.7l19.4-17.7H17.4z"/>
			</g>
		</g>
		<g>
			<g>
				<path class="st1" d="M58.2,51.6H15.5c-0.3,0-0.6-0.2-0.7-0.5c-0.1-0.3,0-0.6,0.3-0.8L32,37.6c0.3-0.2,0.8-0.2,1,0.1
					c0.2,0.3,0.2,0.8-0.1,1L17.7,50.1H56L41,38.9c-0.3-0.2-0.4-0.7-0.1-1c0.2-0.3,0.7-0.4,1-0.1l16.7,12.5c0.3,0.2,0.4,0.5,0.3,0.8
					C58.8,51.4,58.5,51.6,58.2,51.6z"/>
			</g>
		</g>
	</g>
</g>
</svg>
