<?xml version="1.0" encoding="utf-8"?>
<!-- Generator: Adobe Illustrator 27.3.1, SVG Export Plug-In . SVG Version: 6.00 Build 0)  -->
<svg version="1.1" id="Layer_1" xmlns="http://www.w3.org/2000/svg" xmlns:xlink="http://www.w3.org/1999/xlink" x="0px" y="0px"
	 viewBox="0 0 37.7 37.7" style="enable-background:new 0 0 37.7 37.7;" xml:space="preserve">
<style type="text/css">
	.st0{fill:#009ADA;}
</style>
<g>
	<g>
		<g>
			<path class="st0" d="M18.9,26.3c-4.1,0-7.5-3.3-7.5-7.5c0-4.1,3.3-7.5,7.5-7.5c4.1,0,7.5,3.3,7.5,7.5C26.3,23,23,26.3,18.9,26.3z
				 M18.9,14.9c-2.2,0-3.9,1.8-3.9,3.9c0,2.2,1.8,3.9,3.9,3.9c2.2,0,3.9-1.8,3.9-3.9C22.8,16.7,21,14.9,18.9,14.9z"/>
		</g>
		<g>
			<path class="st0" d="M18.9,37.7C8.5,37.7,0,29.3,0,18.9S8.5,0,18.9,0s18.9,8.5,18.9,18.9S29.3,37.7,18.9,37.7z M18.9,3.5
				c-8.4,0-15.3,6.9-15.3,15.3s6.9,15.3,15.3,15.3s15.3-6.9,15.3-15.3S27.3,3.5,18.9,3.5z"/>
		</g>
	</g>
</g>
</svg>
